<svg width="24" height="25" viewBox="0 0 24 25" fill="none" xmlns="http://www.w3.org/2000/svg">
<path fill-rule="evenodd" clip-rule="evenodd" d="M0 6C0 2.68629 2.68629 0 6 0L18 0C21.3137 0 24 2.68629 24 6V8H22V6C22 3.79086 20.2091 2 18 2H6C3.79086 2 2 3.79086 2 6V14C2 16.2091 3.79086 18 6 18H9C9.55228 18 10 18.4477 10 19V21L14 18H18C20.2091 18 22 16.2091 22 14V8H24V14C24 17.3137 21.3137 20 18 20H15L9.58124 23.8705C8.91937 24.3433 8 23.8702 8 23.0568V20H6C2.68629 20 0 17.3137 0 14L0 6Z" fill="black"/>
</svg>
