<svg width="24" height="24" viewBox="0 0 24 24" fill="none" xmlns="http://www.w3.org/2000/svg">
<path fill-rule="evenodd" clip-rule="evenodd" d="M24 20C24 20.5523 23.5523 21 23 21H11V21C11 21.5523 11.4477 22 12 22V22C12.5523 22 13 21.5523 13 21V21H15V21C15 22.6569 13.6569 24 12 24V24C10.3431 24 9 22.6569 9 21V21L1 21C0.447715 21 0 20.5523 0 20V20C0 19.4477 0.447715 19 1 19H2V10C2 4.47715 6.47715 0 12 0V0C17.5228 0 22 4.47715 22 10V11H20V10C20 5.58172 16.4183 2 12 2V2C7.58172 2 4 5.58172 4 10V19L20 19V11H22V19H23C23.5523 19 24 19.4477 24 20V20Z" fill="black"/>
</svg>
