<svg width="24" height="24" viewBox="0 0 24 24" fill="none" xmlns="http://www.w3.org/2000/svg">
<path fill-rule="evenodd" clip-rule="evenodd" d="M18 0C21.3137 0 24 2.68629 24 6L24 18C24 21.3137 21.3137 24 18 24L12 24V22L18 22C20.2091 22 22 20.2091 22 18L22 6C22 3.79086 20.2091 2 18 2L6 2C3.79086 2 2 3.79086 2 6V8L8.46447 7.05025V7.05025C8.85499 6.65973 9.48816 6.65973 9.87868 7.05025L13.4142 10.5858L14.8284 9.17157L13.4142 7.75736C13.0237 7.36683 13.0237 6.73367 13.4142 6.34315V6.34315C13.8047 5.95262 14.4379 5.95262 14.8284 6.34315L17.6569 9.17157C18.0474 9.5621 18.0474 10.1953 17.6569 10.5858V10.5858C17.2663 10.9763 16.6332 10.9763 16.2426 10.5858L14.8284 9.17157L13.4142 10.5858L16.9497 14.1213C17.3403 14.5118 17.3403 15.145 16.9497 15.5355V15.5355C16.5592 15.9261 15.9261 15.9261 15.5355 15.5355L8.46447 8.46447C8.07394 8.07394 8.07394 7.44078 8.46447 7.05025V7.05025L2 8L2 18C2 20.2091 3.79086 22 6 22H12V24H6C2.68629 24 0 21.3137 0 18L0 6C0 2.68629 2.68629 0 6 0L18 0Z" fill="black"/>
</svg>
