<svg width="24" height="24" viewBox="0 0 24 24" fill="none" xmlns="http://www.w3.org/2000/svg">
<path fill-rule="evenodd" clip-rule="evenodd" d="M24 19C24 21.7614 21.7614 24 19 24L12 24V22H19C20.6569 22 22 20.6569 22 19V18C22 16.3431 20.6569 15 19 15L5 15C3.34315 15 2 16.3431 2 18V19C2 20.6569 3.34315 22 5 22L12 22V24L5 24C2.23858 24 0 21.7614 0 19V18C0 15.2386 2.23858 13 5 13H12V12V12C8.68629 12 6 9.31371 6 6V6C6 2.68629 8.68629 0 12 0V0V2V2C9.79086 2 8 3.79086 8 6V6C8 8.20914 9.79086 10 12 10V10C14.2091 10 16 8.20914 16 6V6C16 3.79086 14.2091 2 12 2V2V0V0C15.3137 0 18 2.68629 18 6V6C18 9.31371 15.3137 12 12 12V12V13L19 13C21.7614 13 24 15.2386 24 18L24 19Z" fill="black"/>
</svg>
