<svg width="20" height="20" viewBox="0 0 20 20" fill="none" xmlns="http://www.w3.org/2000/svg">
<path fill-rule="evenodd" clip-rule="evenodd" d="M0 7C0 4.79086 1.79086 3 4 3H10V2H1C0.447716 2 0 1.55228 0 1V1C0 0.447715 0.447715 0 1 0H19C19.5523 0 20 0.447715 20 1V1C20 1.55228 19.5523 2 19 2H10V3H13V5H10V6H13.5C14.8807 6 16 7.11929 16 8.5V8.5C16 9.88071 14.8807 11 13.5 11H10V9H13.5C13.7761 9 14 8.77614 14 8.5V8.5C14 8.22386 13.7761 8 13.5 8H6.5C6.22386 8 6 8.22386 6 8.5V8.5C6 8.77614 6.22386 9 6.5 9H10V11H6.5C5.11929 11 4 9.88071 4 8.5V8.5C4 7.11929 5.11929 6 6.5 6H10V5H4C2.89543 5 2 5.89543 2 7V16C2 17.1046 2.89543 18 4 18H16C17.1046 18 18 17.1046 18 16V7C18 5.89543 17.1046 5 16 5H13V3H16C18.2091 3 20 4.79086 20 7V16C20 18.2091 18.2091 20 16 20H4C1.79086 20 0 18.2091 0 16V7Z" fill="black"/>
</svg>
