<svg width="29" height="28" viewBox="0 0 29 28" fill="none" xmlns="http://www.w3.org/2000/svg">
<g filter="url(#filter0_d_13_109)">
<path fill-rule="evenodd" clip-rule="evenodd" d="M7.70711 0.292893C7.89464 0.105357 8.149 0 8.41421 0H17C18.1046 0 19 0.895431 19 2V6C19 7.10457 18.1046 8 17 8H13V6H16C16.5523 6 17 5.55228 17 5V3C17 2.44772 16.5523 2 16 2H9L7.35355 3.64645C7.15829 3.84171 7.15829 4.15829 7.35355 4.35355L9 6H13V8H8.41421C8.149 8 7.89464 7.89464 7.70711 7.70711L4.35355 4.35355C4.15829 4.15829 4.15829 3.84171 4.35355 3.64645L7.70711 0.292893Z" fill="black"/>
<path fill-rule="evenodd" clip-rule="evenodd" d="M21.5858 9.58579C21.2107 9.21071 20.702 9 20.1716 9H12C10.8954 9 10 9.89543 10 11V15C10 16.1046 10.8954 17 12 17H16V15H13C12.4477 15 12 14.5523 12 14V12C12 11.4477 12.4477 11 13 11H20L21.6464 12.6464C21.8417 12.8417 21.8417 13.1583 21.6464 13.3536L20 15H16V17H20.1716C20.702 17 21.2107 16.7893 21.5858 16.4142L24.6464 13.3536C24.8417 13.1583 24.8417 12.8417 24.6464 12.6464L21.5858 9.58579Z" fill="black"/>
<path fill-rule="evenodd" clip-rule="evenodd" d="M13 7C13 6.44772 13.4477 6 14 6V6C14.5523 6 15 6.44772 15 7V10C15 10.5523 14.5523 11 14 11V11C13.4477 11 13 10.5523 13 10L13 7Z" fill="black"/>
<path fill-rule="evenodd" clip-rule="evenodd" d="M13 16C13 15.4477 13.4477 15 14 15V15C14.5523 15 15 15.4477 15 16V19C15 19.5523 14.5523 20 14 20V20C13.4477 20 13 19.5523 13 19L13 16Z" fill="black"/>
</g>
<defs>
<filter id="filter0_d_13_109" x="0.207092" y="0" width="28.5858" height="28" filterUnits="userSpaceOnUse" color-interpolation-filters="sRGB">
<feFlood flood-opacity="0" result="BackgroundImageFix"/>
<feColorMatrix in="SourceAlpha" type="matrix" values="0 0 0 0 0 0 0 0 0 0 0 0 0 0 0 0 0 0 127 0" result="hardAlpha"/>
<feOffset dy="4"/>
<feGaussianBlur stdDeviation="2"/>
<feComposite in2="hardAlpha" operator="out"/>
<feColorMatrix type="matrix" values="0 0 0 0 0 0 0 0 0 0 0 0 0 0 0 0 0 0 0.25 0"/>
<feBlend mode="normal" in2="BackgroundImageFix" result="effect1_dropShadow_13_109"/>
<feBlend mode="normal" in="SourceGraphic" in2="effect1_dropShadow_13_109" result="shape"/>
</filter>
</defs>
</svg>
