<svg width="21" height="20" viewBox="0 0 21 20" fill="none" xmlns="http://www.w3.org/2000/svg">
<g clip-path="url(#clip0_14_139)">
<path fill-rule="evenodd" clip-rule="evenodd" d="M20 17C20 18.6569 18.6569 20 17 20V20C15.3431 20 14 18.6569 14 17V17H16V17C16 17.5523 16.4477 18 17 18V18C17.5523 18 18 17.5523 18 17V17C18 16.4477 17.5523 16 17 16V16C16.4477 16 16 16.4477 16 17V17H14V17C14 15.3431 15.3431 14 17 14V14V13V13C15.3431 13 14 11.6569 14 10V10H13V10C13 10.5523 12.5523 11 12 11H9L9 15C9 15.5523 9.44772 16 10 16H12C12.5523 16 13 16.4477 13 17V17C13 17.5523 12.5523 18 12 18H10C8.34315 18 7 16.6569 7 15L7 10H6V10C6 11.6569 4.65685 13 3 13V13C1.34315 13 0 11.6569 0 10V10H2V10C2 10.5523 2.44772 11 3 11V11C3.55228 11 4 10.5523 4 10V10C4 9.44772 3.55228 9 3 9V9C2.44772 9 2 9.44772 2 10V10H0V10C0 8.34315 1.34315 7 3 7V7C4.65685 7 6 8.34315 6 10V10H7V5C7 3.34315 8.34315 2 10 2H12C12.5523 2 13 2.44772 13 3V3C13 3.55228 12.5523 4 12 4H10C9.44772 4 9 4.44772 9 5V9H12C12.5523 9 13 9.44772 13 10V10H14V10C14 8.34315 15.3431 7 17 7V7V6V6C15.3431 6 14 4.65685 14 3V3C14 1.34315 15.3431 0 17 0V0C18.6569 0 20 1.34315 20 3V3C20 4.65685 18.6569 6 17 6V6V4V4C17.5523 4 18 3.55228 18 3V3C18 2.44772 17.5523 2 17 2V2C16.4477 2 16 2.44772 16 3V3C16 3.55228 16.4477 4 17 4V4V7V7C18.6569 7 20 8.34315 20 10V10C20 11.6569 18.6569 13 17 13V13V11V11C17.5523 11 18 10.5523 18 10V10C18 9.44772 17.5523 9 17 9V9C16.4477 9 16 9.44772 16 10V10C16 10.5523 16.4477 11 17 11V11V13V14V14C18.6569 14 20 15.3431 20 17V17Z" fill="black"/>
</g>
<defs>
<clipPath id="clip0_14_139">
<rect width="21" height="20" fill="white"/>
</clipPath>
</defs>
</svg>
