<svg width="23" height="22" viewBox="0 0 23 22" fill="none" xmlns="http://www.w3.org/2000/svg">
<path d="M9.84626 19.2307L10.1128 18.8425C10.564 19.2465 11.2527 19.3372 11.7931 19.0637L11.9501 19.5077C12.289 20.4659 13.3079 21.0023 14.2897 20.7392L14.8867 20.5793C15.8685 20.3162 16.4827 19.3422 16.2971 18.3429L16.2111 17.88C16.8157 17.8466 17.3669 17.4237 17.5556 16.8482L17.9805 17.0511C18.8978 17.4891 19.9975 17.1479 20.5057 16.2676L20.8148 15.7324C21.323 14.8521 21.0686 13.7291 20.2307 13.1537L19.8425 12.8872C20.2465 12.436 20.3372 11.7473 20.0637 11.2069L20.5077 11.0499C21.4659 10.711 22.0023 9.6921 21.7392 8.71033L21.5793 8.11329C21.3162 7.13152 20.3422 6.51728 19.3429 6.70293L18.88 6.78894C18.8466 6.18425 18.4237 5.63314 17.8482 5.44438L18.0511 5.01945C18.4891 4.10224 18.1479 3.00247 17.2676 2.49427L16.7324 2.18522C15.8521 1.67702 14.7291 1.93139 14.1537 2.76928L13.8872 3.15746C13.436 2.7535 12.7473 2.66283 12.2069 2.93625L12.0499 2.49231C11.711 1.53406 10.6921 0.99769 9.71033 1.26075L9.11329 1.42073C8.13152 1.68379 7.51727 2.65778 7.70293 3.65708L7.78894 4.12004C7.18425 4.15344 6.63314 4.57632 6.44438 5.15176L6.01945 4.94886C5.10224 4.51089 4.00247 4.85213 3.49427 5.73236L3.18522 6.26764C2.67702 7.14787 2.93139 8.27092 3.76928 8.84626L4.15746 9.11281C3.7535 9.564 3.66283 10.2527 3.93625 10.7931L3.49231 10.9501C2.53406 11.289 1.99769 12.3079 2.26075 13.2897L2.42073 13.8867C2.68379 14.8685 3.65778 15.4827 4.65708 15.2971L5.12004 15.2111C5.15344 15.8158 5.57632 16.3669 6.15176 16.5556L5.94886 16.9806C5.51089 17.8978 5.85212 18.9975 6.73236 19.5057L7.26764 19.8148C8.14787 20.323 9.27092 20.0686 9.84626 19.2307Z" stroke="black" stroke-width="2"/>
</svg>
