<svg width="12" height="12" viewBox="0 0 12 12" fill="none" xmlns="http://www.w3.org/2000/svg">
<path fill-rule="evenodd" clip-rule="evenodd" d="M6 0C9.31371 0 12 2.68629 12 6V7C12 7.55228 11.5523 8 11 8C10.4477 8 10 7.55228 10 7L9 6C9 7.65685 7.65685 9 6 9C4.34315 9 3 7.65685 3 6H5C5 6.55228 5.44772 7 6 7C6.55228 7 7 6.55228 7 6C7 5.44772 6.55228 5 6 5C5.44772 5 5 5.44772 5 6H3C3 4.34315 4.34315 3 6 3C7.65685 3 9 4.34315 9 6L10 7V6C10 3.79086 8.20914 2 6 2C3.79086 2 2 3.79086 2 6C2 8.20914 3.79086 10 6 10H11C11.5523 10 12 10.4477 12 11C12 11.5523 11.5523 12 11 12H6C2.68629 12 0 9.31371 0 6C0 2.68629 2.68629 0 6 0Z" fill="black"/>
</svg>
