<svg width="16" height="20" viewBox="0 0 16 20" fill="none" xmlns="http://www.w3.org/2000/svg">
<path d="M0.23491 10.0059C0.443719 9.71277 0.443719 9.71277 1.27896 8.63785C1.48777 8.44241 1.48777 8.34469 1.69657 8.05153C2.2186 7.36749 2.63622 6.87889 2.94943 6.39029C3.47145 5.70625 3.47145 5.80397 3.78467 5.31537C4.20228 4.72905 4.6199 4.14273 5.03752 3.65413C5.45514 3.16553 5.87276 2.57921 6.29038 1.99289C7.02121 0.91797 7.43883 0.33165 7.96085 0.13621C8.48287 -0.0592303 9.1093 -0.0592303 9.63132 0.23393C9.94453 0.42937 10.2577 0.72253 10.2577 1.21113C10.3622 1.99289 10.571 5.80397 10.571 6.78117C12.0326 7.07433 13.5987 7.46521 15.0604 7.75837C15.1648 7.85609 15.5824 7.95381 15.7912 8.34469C15.7912 8.44241 16 8.73557 16 9.12645C16 9.51733 15.8956 9.81049 15.7912 10.0059C14.8515 11.1786 13.9119 12.4489 12.9723 13.6216C11.4062 15.6737 9.84013 17.7258 8.27406 19.7779C8.16966 19.8756 7.64763 20.0711 7.12561 19.9734C6.18597 19.8756 5.76835 18.8984 5.76835 18.8984C5.76835 18.1167 5.66395 17.2372 5.66395 16.4554C5.55954 15.2828 5.55954 14.1102 5.45514 12.9375C4.72431 12.8398 1.90538 12.4489 1.17455 12.1558C0.443719 11.8626 0.339315 11.6672 0.23491 11.5694C-0.0783034 11.1786 -0.0783034 10.4945 0.23491 10.0059Z" fill="white"/>
</svg>
