<svg width="22" height="22" viewBox="0 0 22 22" fill="none" xmlns="http://www.w3.org/2000/svg">
<path fill-rule="evenodd" clip-rule="evenodd" d="M10 7C10 8.65685 8.65685 10 7 10H5V12H7C8.65685 12 10 13.3431 10 15V16L14 16H16V14H13C12.4477 14 12 13.5523 12 13V13C12 12.4477 12.4477 12 13 12L20 12C20.5523 12 21 12.4477 21 13V13C21 13.5523 20.5523 14 20 14H16V16H17C17.5523 16 18 16.4477 18 17V17C18 17.5523 17.5523 18 17 18H13C12.4477 18 12 17.5523 12 17V17C12 16.4477 12.4477 16 13 16H14L10 16V18C10 19.6569 8.65685 21 7 21L4 21C2.34315 21 1 19.6569 1 18V17L3 17V18C3 18.5523 3.44772 19 4 19L7 19C7.55228 19 8 18.5523 8 18V15C8 14.4477 7.55228 14 7 14H4C3.44772 14 3 14.4477 3 15V17L1 17V15C1 13.3431 2.34315 12 4 12H5V10H4C2.34315 10 1 8.65685 1 7L1 4C1 2.34315 2.34315 1 4 1H5V3H4C3.44772 3 3 3.44772 3 4L3 7C3 7.55228 3.44772 8 4 8H7C7.55228 8 8 7.55228 8 7V4C8 3.44772 7.55228 3 7 3L5 3V1L7 1C8.65685 1 10 2.34315 10 4V5H12V4C12 2.34315 13.3431 1 15 1H18C19.6569 1 21 2.34315 21 4L21 7C21 8.65685 19.6569 10 18 10H17V8H18C18.5523 8 19 7.55228 19 7L19 4C19 3.44772 18.5523 3 18 3H15C14.4477 3 14 3.44772 14 4V7C14 7.55228 14.4477 8 15 8H17V10H15C13.3431 10 12 8.65685 12 7V5H10V7Z" fill="black"/>
</svg>
