<svg width="18" height="4" viewBox="0 0 18 4" fill="none" xmlns="http://www.w3.org/2000/svg">
<path fill-rule="evenodd" clip-rule="evenodd" d="M0 2C0 0.895431 0.895431 0 2 0V0C3.10457 0 4 0.895431 4 2V2H7V2C7 0.895431 7.89543 0 9 0V0C10.1046 0 11 0.895431 11 2V2H14V2C14 0.895431 14.8954 0 16 0V0C17.1046 0 18 0.895431 18 2V2C18 3.10457 17.1046 4 16 4V4C14.8954 4 14 3.10457 14 2V2H11V2C11 3.10457 10.1046 4 9 4V4C7.89543 4 7 3.10457 7 2V2H4V2C4 3.10457 3.10457 4 2 4V4C0.895431 4 0 3.10457 0 2V2Z" fill="black"/>
</svg>
