<svg width="26" height="26" viewBox="0 0 26 26" fill="none" xmlns="http://www.w3.org/2000/svg">
<path fill-rule="evenodd" clip-rule="evenodd" d="M5 3.41029H9C9.55228 3.41029 10 3.85801 10 4.41029C10 4.96258 9.55228 5.41029 9 5.41029H5C3.34315 5.41029 2 6.75344 2 8.41029V20.4103C2 22.0671 3.34315 23.4103 5 23.4103H17C18.6569 23.4103 20 22.0671 20 20.4103V16.4103C20 15.858 20.4477 15.4103 21 15.4103C21.5523 15.4103 22 15.858 22 16.4103V20.4103C22 23.1717 19.7614 25.4103 17 25.4103H5C2.23858 25.4103 0 23.1717 0 20.4103V8.41029C0 5.64887 2.23858 3.41029 5 3.41029Z" fill="black"/>
<path fill-rule="evenodd" clip-rule="evenodd" d="M15 3.41421L21 3.41421C21.5523 3.41421 22 3.86193 22 4.41421L22 10.4142C22 10.9665 21.5523 11.4142 21 11.4142C20.4477 11.4142 20 10.9665 20 10.4142L20 6.91663L13.5739 13.3428C13.1592 13.7575 12.4868 13.7575 12.0721 13.3428C11.6574 12.9281 11.6574 12.2557 12.0721 11.841L18.4989 5.41421L15 5.41421C14.4477 5.41421 14 4.9665 14 4.41421C14 3.86193 14.4477 3.41421 15 3.41421Z" fill="black"/>
</svg>
