<svg width="17" height="16" viewBox="0 0 17 16" fill="none" xmlns="http://www.w3.org/2000/svg">
<path fill-rule="evenodd" clip-rule="evenodd" d="M7.48329 8.50424L6.50422 9.48331L5.98568 8.96477L3.10535 13.3747L7.54131 10.5204L6.50422 9.48331L7.48329 8.50424L10.3987 11.4197C10.5069 11.5278 10.6822 11.5278 10.7904 11.4197V11.4197C11.223 10.9871 11.223 10.2858 10.7904 9.85318L8.46237 7.52517L9.44144 6.5461L10.9971 8.10173L11.9471 6.11458L11.4286 5.59604L12.4077 4.61697L13.7185 5.92783C13.8537 6.06301 14.0729 6.06301 14.2081 5.92783V5.92783C14.3432 5.79265 14.3432 5.57348 14.2081 5.4383L12.3786 3.60889L13.3577 2.62981L15.7491 5.02118C16.1467 5.41877 16.1467 6.0634 15.7491 6.46099L15.0584 7.15167C14.4856 7.72444 13.557 7.72444 12.9842 7.15167V7.15167L12.0342 9.13882V9.13882C12.8933 9.99798 12.8933 11.3909 12.0342 12.2501L10.9331 13.3512C10.7782 13.5061 10.527 13.5061 10.3721 13.3512L8.5784 11.5575L1.48535 15.6773C1.28639 15.7929 1.03462 15.7604 0.871527 15.5981V15.5981C0.706924 15.4343 0.674261 15.1798 0.792171 14.9797L4.94859 7.92768L3.15489 6.13398C2.99999 5.97907 2.99999 5.72792 3.15489 5.57301L4.25599 4.47192C5.11514 3.61277 6.5081 3.61277 7.36726 4.47192V4.47192L9.35441 3.52186V3.52186C8.78164 2.94909 8.78164 2.02045 9.35441 1.44768L10.0451 0.756995C10.4427 0.359402 11.0873 0.359403 11.4849 0.756995L13.3577 2.62981L12.3786 3.60889L11.0678 2.29802C10.9326 2.16284 10.7134 2.16284 10.5782 2.29802V2.29802C10.4431 2.4332 10.4431 2.65237 10.5782 2.78755L12.4077 4.61697L11.4286 5.59604L10.3915 4.55895L8.40435 5.50901L9.44144 6.5461L8.46237 7.52517L6.6529 5.7157C6.22032 5.28312 5.51896 5.28312 5.08638 5.7157V5.7157C4.97824 5.82385 4.97824 5.99918 5.08638 6.10733L7.48329 8.50424Z" fill="#8B8B8B"/>
</svg>
