<svg width="20" height="20" viewBox="0 0 20 20" fill="none" xmlns="http://www.w3.org/2000/svg">
<g clip-path="url(#clip0_14_133)">
<path fill-rule="evenodd" clip-rule="evenodd" d="M8.5 0H11.5C16.1944 0 20 3.80558 20 8.5V14C20 15.6569 18.6569 17 17 17H16C16 18.6569 14.6569 20 13 20H10V18H12.5C13.3284 18 14 17.3284 14 16.5V16C14 15.4477 14.4477 15 15 15H17C17.5523 15 18 14.5523 18 14V8.5C18 4.91015 15.0899 2 11.5 2H8.5C4.91015 2 2 4.91015 2 8.5V14C2 14.5523 2.44772 15 3 15H5C5.55228 15 6 15.4477 6 16V16.5C6 17.3284 6.67157 18 7.5 18H10V20H7C5.34315 20 4 18.6569 4 17H3C1.34315 17 0 15.6569 0 14V8.5C0 3.80558 3.80558 0 8.5 0Z" fill="black"/>
<path fill-rule="evenodd" clip-rule="evenodd" d="M11.236 14.5129C10.6735 13.5043 10.2615 13 10 13C9.73853 13 9.32654 13.5043 8.76401 14.5129C8.49503 14.9953 8.66797 15.6044 9.1503 15.8734C9.29921 15.9564 9.46687 16 9.63737 16H10.3626C10.9149 16 11.3626 15.5523 11.3626 15C11.3626 14.8295 11.319 14.6618 11.236 14.5129Z" fill="black"/>
<path fill-rule="evenodd" clip-rule="evenodd" d="M4.73224 8.73223C4.95862 8.50586 5.26565 8.37868 5.5858 8.37868L7.41422 8.37868C7.73437 8.37868 8.0414 8.50586 8.26778 8.73223C8.49415 8.95861 8.62133 9.26564 8.62133 9.58579L8.62133 11.4142C8.62133 11.7344 8.49415 12.0414 8.26778 12.2678C8.0414 12.4941 7.73437 12.6213 7.41422 12.6213L5.5858 12.6213C5.26565 12.6213 4.95862 12.4941 4.73224 12.2678C4.50587 12.0414 4.37869 11.7344 4.37869 11.4142L4.37869 9.58579C4.37869 9.26564 4.50587 8.95861 4.73224 8.73223Z" fill="black"/>
<path fill-rule="evenodd" clip-rule="evenodd" d="M11.7322 8.73223C11.9586 8.50586 12.2657 8.37868 12.5858 8.37868H14.4142C14.7344 8.37868 15.0414 8.50586 15.2678 8.73223C15.4942 8.95861 15.6213 9.26564 15.6213 9.58579V11.4142C15.6213 11.7344 15.4942 12.0414 15.2678 12.2678C15.0414 12.4941 14.7344 12.6213 14.4142 12.6213H12.5858C12.2657 12.6213 11.9586 12.4941 11.7322 12.2678C11.5059 12.0414 11.3787 11.7344 11.3787 11.4142V9.58579C11.3787 9.26564 11.5059 8.95861 11.7322 8.73223Z" fill="black"/>
</g>
<defs>
<clipPath id="clip0_14_133">
<rect width="20" height="20" fill="white"/>
</clipPath>
</defs>
</svg>
